<?xml version="1.0" encoding="utf-8"?>
<!-- Generator: Adobe Illustrator 26.0.0, SVG Export Plug-In . SVG Version: 6.00 Build 0)  -->
<svg version="1.1" id="Layer_1" xmlns="http://www.w3.org/2000/svg" xmlns:xlink="http://www.w3.org/1999/xlink" x="0px" y="0px"
	 viewBox="0 0 384 384" style="enable-background:new 0 0 384 384;" xml:space="preserve">
<style type="text/css">
	.st0{fill:#020202;}
	.st1{fill:#010101;}
</style>
<path class="st0" d="M320,191.7c0,47.3,0,94.5,0,141.8c0,16.5-9.4,29-24.6,32.8c-3,0.7-6.2,1.1-9.3,1c-52.1,0-104.2,0-156.3,0
	c-20.1,0-33.7-13.8-33.8-33.9c0-14.2,0.1-28.4-0.1-42.6c0-2.9,0.8-3.4,3.5-3.4c8.4,0.2,16.7,0.2,25.1,0c3.2-0.1,3.7,1,3.6,3.8
	c-0.2,3.4,0,6.7-0.1,10.1c-0.1,1.6,0.4,2.3,2.1,2.1c0.6,0,1.2,0,1.9,0c50.7,0,101.4,0,152.2,0.1c3.2,0,3.8-0.8,3.8-3.9
	c-0.1-71.9-0.1-143.9,0-215.9c0-3.2-0.8-3.8-3.9-3.8C233.4,80,182.7,80,132,79.9c-3.4,0-4.2,1-4,4.1s0,6.5,0.1,9.7
	c0.1,1.6-0.4,2.2-2.1,2.2c-9.4-0.1-18.7,0-28.1,0c-1.1,0-1.9,0-1.9-1.5c0.2-17-1.2-34,0.6-50.8S112.1,16,129.5,16
	c23.5-0.1,47,0,70.5,0c28.7,0,57.5,0.1,86.2,0.2c15.7,0.1,27.4,8,32.1,21.6c1.3,4.2,1.9,8.5,1.8,12.9V191.7z"/>
<path class="st1" d="M137.4,159.6c-18.5,0-36.1-0.1-53.7,0.1c-3,0-3.7-0.9-3.6-3.7c0.2-8.4,0.1-16.7,0-25.1c0-2.3,0.4-3.2,3-3.2
	c35.3,0.1,70.7,0.1,106.1,0c2.2,0,2.9,0.4,2.9,2.8c-0.1,35.4-0.1,70.8,0,106.2c0,2.6-1,2.7-3,2.7c-8.6-0.1-17.2-0.1-25.9,0
	c-2.6,0-3.3-0.7-3.3-3.3c0.1-16.5,0.1-32.9,0.1-49.4v-4.4c-1.4,1.3-2.4,2.2-3.3,3.1c-27.8,27.7-55.5,55.4-83.2,83.1
	c-2.3,2.3-3.4,2.5-5.7,0c-5.3-5.7-10.9-11.3-16.7-16.7c-2.5-2.3-2.8-3.5-0.1-6.1c27.8-27.5,55.4-55.1,83-82.7
	C134.9,162.2,135.8,161.2,137.4,159.6z"/>
</svg>
