<?xml version="1.0" encoding="utf-8"?>
<!-- Generator: Adobe Illustrator 26.0.0, SVG Export Plug-In . SVG Version: 6.00 Build 0)  -->
<svg version="1.1" id="Layer_1" xmlns="http://www.w3.org/2000/svg" xmlns:xlink="http://www.w3.org/1999/xlink" x="0px" y="0px"
	 viewBox="0 0 24 24" style="enable-background:new 0 0 24 24;" xml:space="preserve">
<g>
	<path d="M11.1,12.7H6.8c-0.4,0-0.8-0.3-0.8-0.8s0.3-0.8,0.8-0.8h4.4V6.8c0-0.4,0.3-0.8,0.7-0.8c0.1,0,0.2,0,0.3,0
		c0.3,0.1,0.5,0.4,0.5,0.8v4.3h4.5c0.4,0,0.8,0.3,0.8,0.7c0,0.1,0,0.2,0,0.3c-0.1,0.3-0.4,0.6-0.7,0.6h-4.5v4.5
		c0,0.3-0.1,0.7-0.5,0.8c-0.3,0.1-0.7,0-0.9-0.3c-0.1-0.2-0.1-0.3-0.1-0.5c0-1.4,0-2.8,0-4.1v-0.4H11.1z"/>
	<path d="M20.8,1c0,0-17.9,0-18,0C1.6,1.1,0.6,2.2,0.7,3.4c0,0,0,17.5,0,17.6c0.1,1.2,1.2,2.2,2.4,2.1c0,0,17.9,0,18,0
		c1.2-0.1,2.2-1.2,2.1-2.4c0,0,0-17.5,0-17.6C23.1,1.9,22,0.9,20.8,1z M21.7,20.7c0,0.6-0.3,0.9-0.9,0.9H12H3.1
		c-0.6,0-0.9-0.3-0.9-0.9c0-3.2,0-6.3,0-9.4l0-8c0-0.6,0.3-0.9,0.9-0.9h8.8h8.9c0.6,0,0.9,0.3,0.9,0.9c0,2.3,0,4.6,0,6.9h0V20.7z"/>
</g>
</svg>
