<svg xmlns="http://www.w3.org/2000/svg" xmlns:xlink="http://www.w3.org/1999/xlink" viewBox="0 0 144 144"><defs><style>.cls-1{fill:#fff;}.cls-2{fill:url(#linear-gradient);}.cls-3{fill:#f5f5ff;}.cls-4{fill:url(#linear-gradient-2);}.cls-5{fill:url(#linear-gradient-10);}.cls-6{fill:url(#linear-gradient-12);}</style><linearGradient id="linear-gradient" x1="16.75" y1="16.75" x2="66.88" y2="66.88" gradientUnits="userSpaceOnUse"><stop offset="0" stop-color="#fff9f9"/><stop offset="1" stop-color="#fff" stop-opacity="0"/></linearGradient><linearGradient id="linear-gradient-2" x1="45.17" y1="98.83" x2="98.77" y2="45.23" gradientUnits="userSpaceOnUse"><stop offset="0" stop-color="#f0f"/><stop offset="1" stop-color="#5300ff"/></linearGradient><linearGradient id="linear-gradient-10" x1="92" y1="105.5" x2="38.41" y2="51.91" xlink:href="#linear-gradient-2"/><linearGradient id="linear-gradient-12" x1="105.5" y1="92" x2="51.91" y2="38.41" xlink:href="#linear-gradient-2"/></defs><title>Artboard 1</title><g id="Layer_4" data-name="Layer 4"><rect class="cls-1" width="144" height="144" rx="25.26" ry="25.26"/><path class="cls-2" d="M9,127.74V34.26A25.26,25.26,0,0,1,34.26,9h93.48a25.1,25.1,0,0,1,12.78,3.48A25.23,25.23,0,0,0,118.74,0H25.26A25.26,25.26,0,0,0,0,25.26v93.48a25.23,25.23,0,0,0,12.48,21.78A25.1,25.1,0,0,1,9,127.74Z"/><path class="cls-3" d="M131.52,3.48A25.1,25.1,0,0,1,135,16.26v93.48A25.26,25.26,0,0,1,109.74,135H16.26a25.1,25.1,0,0,1-12.78-3.48A25.23,25.23,0,0,0,25.26,144h93.48A25.26,25.26,0,0,0,144,118.74V25.26A25.23,25.23,0,0,0,131.52,3.48Z"/></g><g id="Layer_3" data-name="Layer 3"><rect class="cls-4" x="36" y="99" width="9" height="9"/><rect class="cls-4" x="45" y="90" width="9" height="9"/><rect class="cls-4" x="54" y="81" width="9" height="9"/><rect class="cls-4" x="63" y="72" width="9" height="9"/><rect class="cls-4" x="72" y="63" width="9" height="9"/><rect class="cls-4" x="81" y="54" width="9" height="9"/><rect class="cls-4" x="90" y="45" width="9" height="9"/><rect class="cls-4" x="99" y="36" width="9" height="9"/><polygon class="cls-5" points="45 45 36 45 36 54 36 63 45 63 45 54 45 45"/><polygon class="cls-5" points="45 63 45 72 54 72 63 72 63 63 54 63 45 63"/><polygon class="cls-6" points="63 45 63 36 54 36 45 36 45 45 54 45 63 45"/><polygon class="cls-6" points="72 54 72 45 63 45 63 54 63 63 72 63 72 54"/><polygon class="cls-5" points="81 81 72 81 72 90 72 99 81 99 81 90 81 81"/><polygon class="cls-5" points="81 99 81 108 90 108 99 108 99 99 90 99 81 99"/><polygon class="cls-6" points="99 81 99 72 90 72 81 72 81 81 90 81 99 81"/><polygon class="cls-6" points="99 81 99 90 99 99 108 99 108 90 108 81 99 81"/></g></svg>