<svg xmlns="http://www.w3.org/2000/svg" viewBox="0 0 270.94 351.32"><defs><style>.cls-1{fill:#020202;}.cls-2{fill:#010101;}</style></defs><g id="Layer_2" data-name="Layer 2"><g id="Layer_1-2" data-name="Layer 1"><path class="cls-1" d="M270.92,175.72V317.51c0,16.51-9.44,29-24.64,32.8a37.66,37.66,0,0,1-9.28,1H80.71C60.6,351.31,47,337.55,47,317.41c0-14.22.1-28.43-.08-42.65,0-2.91.82-3.44,3.52-3.38,8.36.18,16.74.23,25.1,0,3.17-.1,3.74,1,3.57,3.78-.22,3.36,0,6.74-.08,10.1-.06,1.62.45,2.32,2.11,2.11.62,0,1.25,0,1.87,0q76.08,0,152.17.08c3.16,0,3.82-.79,3.81-3.86q-.13-107.92,0-215.85c0-3.18-.83-3.8-3.88-3.8q-76.08.16-152.17,0c-3.45,0-4.22,1-4,4.13s0,6.49.09,9.72c.05,1.6-.44,2.19-2.1,2.18-9.37-.07-18.74,0-28.11,0-1.09,0-1.92,0-1.9-1.52.23-17-1.23-34,.59-50.83S63,0,80.38,0q35.24-.08,70.47.05,43.1.06,86.2.17c15.66.06,27.38,8,32.08,21.59a38.35,38.35,0,0,1,1.79,12.85Z"/><path class="cls-2" d="M88.28,143.66c-18.51,0-36.1-.08-53.7.07-3,0-3.68-.86-3.61-3.7.18-8.35.14-16.71,0-25.07,0-2.29.39-3.18,3-3.17q53,.13,106.07,0c2.22,0,2.94.43,2.93,2.82q-.12,53.13,0,106.25c0,2.56-1,2.73-3,2.7-8.62-.09-17.24-.14-25.86,0-2.63,0-3.31-.68-3.29-3.29.12-16.46.06-32.93.06-49.39v-4.41c-1.4,1.31-2.37,2.16-3.28,3.07q-41.68,41.57-83.18,83.15c-2.27,2.27-3.42,2.52-5.73,0C13.35,247,7.76,241.42,2,236c-2.49-2.32-2.81-3.49-.14-6.13q41.66-41.22,83-82.74C85.84,146.25,86.75,145.26,88.28,143.66Z"/></g></g></svg>