<svg xmlns="http://www.w3.org/2000/svg" viewBox="0 0 22.51 22.12"><g id="Layer_2" data-name="Layer 2"><g id="Layer_1-2" data-name="Layer 1"><path d="M11.26,22.11H2.39A2.24,2.24,0,0,1,0,20v-.26Q0,13.92,0,8.05a2.32,2.32,0,0,1,1.14-2L9.91.43a2.33,2.33,0,0,1,2.69,0Q17,3.19,21.37,6.05a2.32,2.32,0,0,1,1.14,2V19.73a2.25,2.25,0,0,1-2.11,2.38,1.22,1.22,0,0,1-.27,0Zm0-1.49H20.1c.64,0,.91-.28.91-.92V8.15a1,1,0,0,0-.5-.93C17.6,5.37,14.7,3.5,11.8,1.64a.93.93,0,0,0-1.1,0Q6.35,4.46,2,7.24a1,1,0,0,0-.47.87V19.72c0,.62.27.9.89.9Z"/><path d="M10.51,13.27H6.07a.75.75,0,0,1,0-1.5h4.44V7.33a.76.76,0,0,1,.71-.79.92.92,0,0,1,.29,0,.77.77,0,0,1,.48.76v4.43h4.47a.76.76,0,0,1,.76.74.75.75,0,0,1,0,.26.72.72,0,0,1-.74.47H12V17.7a.75.75,0,0,1-.55.75.7.7,0,0,1-.82-.3,1.1,1.1,0,0,1-.13-.51V13.27Z"/></g></g></svg>